PathFileType	4	(X/Y/Z)	C:/Users/opensim2020/Desktop/walking_exp_matlab/subject02_walking12_straight_03.trc																																																																																																																												
DataRate	CameraRate	NumFrames	NumMarkers	Units	OrigDataRate	OrigDataStartFrame	OrigNumFrames																																																																																																																								
100	100	4	42	mm	100	1589	127																																																																																																																								
Frame#	Time	LFHD			RFHD			LBHD			RBHD			C7			T10			CLAV			STRN			RBAK			LSHO			LUPA			LELB			LFRM			LWRA			LWRB			LFIN			RSHO			RUPA			RELB			RFRM			RWRA			RWRB			RFIN			LASI			RASI			LPSI			RPSI			LTHI			LKNE			LTIB			LANK			LHEE			LTOE			RTHI			RKNE			RTIB			RANK			RHEE			RTOE			*39			*40			*41		
		X1	Y1	Z1	X2	Y2	Z2	X3	Y3	Z3	X4	Y4	Z4	X5	Y5	Z5	X6	Y6	Z6	X7	Y7	Z7	X8	Y8	Z8	X9	Y9	Z9	X10	Y10	Z10	X11	Y11	Z11	X12	Y12	Z12	X13	Y13	Z13	X14	Y14	Z14	X15	Y15	Z15	X16	Y16	Z16	X17	Y17	Z17	X18	Y18	Z18	X19	Y19	Z19	X20	Y20	Z20	X21	Y21	Z21	X22	Y22	Z22	X23	Y23	Z23	X24	Y24	Z24	X25	Y25	Z25	X26	Y26	Z26	X27	Y27	Z27	X28	Y28	Z28	X29	Y29	Z29	X30	Y30	Z30	X31	Y31	Z31	X32	Y32	Z32	X33	Y33	Z33	X34	Y34	Z34	X35	Y35	Z35	X36	Y36	Z36	X37	Y37	Z37	X38	Y38	Z38	X39	Y39	Z39	X40	Y40	Z40	X41	Y41	Z41	X42	Y42	Z42
																																																																																																																															
64	0.63	220.17151	1711.88696	-1010.11932	173.33948	1685.02148	-874.95044	98.72658	1641.00671	-1064.82336	40.77848	1613.45984	-936.06628	21.10703	1493.81934	-1003.39728	-25.41146	1216.53186	-1008.52069	161.73303	1428.5614	-1005.83466	218.15538	1258.32922	-1007.16333	-38.35695	1312.96643	-956.83942	103.47362	1483.59045	-1174.63196	143.21573	1309.36279	-1286.98352	204.05261	1186.65955	-1333.6073	317.3811	1113.05811	-1342.57898	446.20227	1088.87207	-1301.12744	423.0842	1051.37488	-1336.61865	487.15649	1038.64551	-1340.04846	79.77348	1444.19922	-813.33032	8.4676	1261.20813	-750.37964	-11.0161	1118.17273	-737.98865	-20.91628	1000.82721	-712.65302	-4.32338	865.23108	-717.67908	-57.65598	876.02026	-700.98157	-42.17745	806.1795	-688.83685	197.46141	955.08215	-1157.70117	223.55824	951.25415	-905.35101	-2.77445	1000.54877	-1055.67981	1.64994	1002.46637	-939.51697	62.91395	658.47559	-1215.34949	-10.92572	475.44827	-1199.51428	-160.56848	351.62567	-1200.83411	-280.48196	159.0307	-1182.6322	-316.32358	156.28455	-1128.52087	-184.28162	31.95219	-1194.25781	227.42155	659.28015	-823.76208	307.43173	470.02344	-870.30231	304.01099	281.83801	-862.09589	304.7294	91.27726	-898.80328	271.94269	39.66566	-955.89404	457.87067	41.31807	-884.2865	95.21364	1774.59521	-953.20331	2845.25073	1034.28748	-3360.30811	NaN	NaN	NaN
65	0.64	232.52737	1713.22229	-1006.7912	185.31099	1686.30847	-871.64246	111.03831	1642.68726	-1062.51709	52.72894	1614.98657	-933.3432	33.39598	1495.01941	-1000.55225	-12.52208	1217.61169	-1005.8595	174.15436	1430.10791	-1003.16278	231.25816	1260.09546	-1004.40112	-25.35508	1313.95679	-953.69031	115.7877	1484.78442	-1172.1936	152.47839	1308.92554	-1283.7074	211.24881	1185.03271	-1329.54651	324.14844	1110.66443	-1338.06433	452.6741	1085.66992	-1296.25378	429.58163	1048.38208	-1331.93188	493.66782	1035.34216	-1334.86877	92.65622	1445.18237	-810.76746	22.65837	1262.02734	-747.17999	4.09354	1118.46875	-735.50354	-4.22127	1001.1496	-710.61005	13.06039	865.52948	-716.37506	-40.39418	875.81592	-699.43811	-24.18539	805.7395	-687.80164	211.61537	956.13324	-1153.05505	237.07738	953.23273	-901.84161	10.98267	1001.47015	-1053.58203	15.35958	1004.40546	-936.77875	80.29404	657.91577	-1213.0885	10.60626	474.87061	-1198.82788	-141.7928	355.59113	-1198.53247	-266.9314	167.30008	-1180.74524	-301.10382	166.61235	-1125.69971	-182.80704	32.60179	-1193.60828	238.97823	659.28094	-823.40991	318.06177	469.73056	-869.60162	309.25647	281.89435	-861.69183	305.63107	91.28268	-899.04236	271.82404	40.10472	-955.64795	458.38513	40.68061	-884.12439	107.2876	1775.89429	-950.13416	2845.82886	1034.27881	-3357.41748	NaN	NaN	NaN
66	0.65	244.76021	1714.93799	-1003.11194	197.25114	1687.77942	-868.13757	123.69171	1644.19885	-1058.78308	65.07271	1616.36157	-930.46082	45.65866	1496.33215	-997.92322	0.3933	1218.92371	-1003.15228	186.52016	1431.92639	-1000.67236	244.04094	1261.98499	-1001.6983	-12.45741	1315.27063	-950.66864	127.81873	1486.25171	-1169.80872	161.7426	1308.67065	-1280.20276	218.15173	1183.52637	-1325.43579	330.3833	1108.10217	-1333.92151	458.61679	1081.88843	-1291.29919	435.40701	1044.96851	-1327.46399	499.4166	1031.40466	-1329.83093	105.52607	1446.81982	-808.14832	37.54331	1262.8833	-744.276	19.99809	1119.09082	-733.25684	12.80153	1001.54047	-708.60223	31.14066	865.82324	-715.00055	-22.20168	875.88611	-697.68317	-6.00341	805.75732	-686.68195	225.21887	957.20972	-1148.34131	250.27274	955.4726	-898.10419	24.30959	1002.80035	-1051.45642	28.92689	1006.27924	-934.26526	98.30159	656.83954	-1210.83972	32.93656	473.66516	-1197.98279	-121.35434	358.97974	-1195.99158	-250.63708	175.00108	-1179.00378	-283.73047	176.13737	-1122.99841	-179.09795	33.91084	-1192.51526	251.27083	660.8158	-821.88763	327.02429	469.53046	-868.74701	312.0575	282.44077	-861.4469	306.19131	91.55372	-899.18951	271.83426	40.21282	-955.56989	459.04922	40.30742	-884.68842	119.26863	1777.56445	-947.08313	2845.00244	1034.19873	-3360.36475	NaN	NaN	NaN
67	0.66	256.97238	1716.7887	-999.68756	208.91444	1689.37903	-865.09857	136.09235	1646.22375	-1055.87048	76.56287	1617.89148	-928.1474	57.87278	1497.97571	-995.45441	13.20489	1220.49463	-1000.37238	198.92963	1433.9458	-998.30353	256.74619	1264.0647	-999.28369	0.46078	1316.84668	-947.92792	139.61436	1487.94678	-1167.48779	170.73865	1308.67896	-1277.18738	224.73923	1182.26245	-1321.21399	336.05786	1105.42151	-1329.27039	463.81891	1077.68408	-1286.57715	440.45795	1041.1488	-1323.00916	504.38675	1026.70642	-1324.80554	117.95658	1448.97217	-805.6272	51.70165	1264.16956	-741.43793	36.06078	1119.96619	-730.84589	29.80702	1002.16357	-706.62299	50.1046	866.98242	-713.54822	-3.26877	876.21753	-695.80695	14.08516	806.23212	-685.22217	238.32396	958.32855	-1143.80212	262.91171	957.74908	-894.35645	37.2266	1004.59924	-1049.37366	41.94527	1008.28271	-931.90295	116.75738	655.36511	-1208.58398	55.80797	472.38388	-1197.3125	-99.80334	361.7084	-1193.82068	-232.75627	182.19781	-1177.24597	-265.16409	185.65681	-1120.02234	-171.96671	36.98626	-1191.00183	263.73969	663.27686	-819.76379	334.04266	469.45657	-867.66571	313.91089	282.79794	-861.27527	306.64511	91.77583	-899.22485	271.68945	40.23879	-955.50323	459.29285	40.1163	-884.91083	131.51338	1779.3175	-943.70447	2845.90503	1034.27246	-3357.46631	NaN	NaN	NaN
